<svg width="24" height="24" viewBox="0 0 24 24" fill="none" xmlns="http://www.w3.org/2000/svg">
<g clip-path="url(#clip0_1483_66116)">
<path d="M1.4407 8.56925C1.18249 9.36438 1.38276 10.1762 1.5525 10.8642L1.55532 10.8756L1.6524 10.8516L1.55532 10.8756C1.65842 11.2935 1.75111 11.6719 1.75111 12C1.75111 12.3281 1.65842 12.7065 1.55532 13.1243L1.55531 13.1243L1.55254 13.1355C1.38279 13.8236 1.18252 14.6355 1.4407 15.4306C1.70881 16.2565 2.36229 16.8029 2.9167 17.2664L2.92515 17.2735C3.24356 17.5397 3.53029 17.7803 3.70804 18.0246C3.89012 18.2748 4.03294 18.626 4.19056 19.0154L4.19473 19.0257C4.4641 19.6912 4.78164 20.4758 5.47452 20.98C6.16161 21.4801 7.0031 21.5409 7.71659 21.5924L7.72725 21.5932C8.14943 21.6237 8.53103 21.6519 8.83215 21.7497C9.11014 21.8399 9.42186 22.0349 9.76775 22.2521L9.77674 22.2578C10.3924 22.6444 11.1176 23.0999 12 23.0999C12.8824 23.0999 13.6074 22.6446 14.223 22.258L14.2323 22.2522C14.5782 22.035 14.8899 21.84 15.1679 21.7497L15.137 21.6546L15.1679 21.7497C15.4691 21.6519 15.8507 21.6237 16.2729 21.5931L16.2841 21.5923C16.9974 21.5408 17.8387 21.48 18.5256 20.98C19.2184 20.4758 19.5359 19.6913 19.8053 19.026L19.8096 19.0154L19.7169 18.9779L19.8096 19.0154C19.9671 18.626 20.11 18.2748 20.2921 18.0246C20.4699 17.7803 20.7566 17.5397 21.075 17.2735L21.0109 17.1968L21.075 17.2735L21.0836 17.2663C21.6379 16.8028 22.2913 16.2564 22.5594 15.4306C22.8176 14.6355 22.6174 13.8238 22.4476 13.1357L22.4448 13.1243L22.4448 13.1242C22.3416 12.7065 22.2489 12.3282 22.2489 12C22.2489 11.6719 22.3416 11.2935 22.4447 10.8757L22.4475 10.8645C22.6172 10.1764 22.8175 9.36458 22.5594 8.5694L22.4643 8.60028L22.5594 8.5694C22.2912 7.74342 21.6377 7.19701 21.0832 6.73342L21.0749 6.72646C20.7565 6.46016 20.4698 6.2196 20.292 5.97538C20.1099 5.72513 19.9671 5.3739 19.8095 4.98457L19.7182 5.02153L19.8095 4.98456L19.8053 4.97417C19.5359 4.30871 19.2184 3.52419 18.5255 3.01991C17.8384 2.51987 16.997 2.4591 16.2835 2.40757L16.2728 2.4068C15.8506 2.37627 15.469 2.34802 15.1679 2.25029C14.8899 2.16006 14.5782 1.96507 14.2323 1.74781L14.1791 1.83249L14.2323 1.74781L14.2234 1.7422C13.6077 1.3555 12.8825 0.9 12 0.9C11.1175 0.9 10.3923 1.35546 9.7767 1.74211L9.7677 1.74776C9.42186 1.96496 9.1101 2.15996 8.83216 2.25024C8.531 2.34802 8.14941 2.37622 7.72719 2.40675L7.71599 2.40756C7.00268 2.45913 6.16139 2.51994 5.47447 3.01986L5.53331 3.10072L5.47447 3.01986C4.78168 3.52409 4.46413 4.30856 4.19479 4.97394L4.19051 4.98451C4.03289 5.37385 3.89007 5.72507 3.70801 5.97532C3.5302 6.21955 3.24351 6.46017 2.92511 6.72641L2.91677 6.73338C2.36233 7.19697 1.70884 7.74337 1.4407 8.56925ZM1.4407 8.56925L1.53581 8.60013L1.4407 8.56925C1.4407 8.56925 1.4407 8.56925 1.4407 8.56925ZM18.2402 18.3803L18.3329 18.4178L18.2402 18.3803C18.1317 18.6485 18.0287 18.9028 17.913 19.1196C17.797 19.337 17.6735 19.5064 17.5293 19.6113L17.5882 19.6922L17.5293 19.6113C17.3883 19.714 17.1913 19.7784 16.9504 19.8213C16.7102 19.8641 16.4379 19.8839 16.1507 19.9047L16.1452 19.9051C15.6598 19.9402 15.1441 19.9775 14.645 20.1396C14.1647 20.2955 13.7379 20.5636 13.3368 20.8155L13.3319 20.8186C13.0835 20.9745 12.848 21.1223 12.6224 21.2316C12.3965 21.341 12.1898 21.407 12 21.407C11.8102 21.407 11.6036 21.341 11.3776 21.2316C11.152 21.1223 10.9165 20.9745 10.6681 20.8186C10.6681 20.8186 10.6681 20.8186 10.6681 20.8186L10.6641 20.8161C10.2627 20.5639 9.83559 20.2956 9.35498 20.1396C8.85606 19.9776 8.34062 19.9402 7.85542 19.9051L7.84936 19.9047C7.56218 19.8839 7.28981 19.8641 7.04967 19.8213C6.80871 19.7784 6.61177 19.714 6.47067 19.6113C6.32654 19.5064 6.20302 19.337 6.08705 19.1196C5.97141 18.9028 5.86836 18.6485 5.75982 18.3803L5.66713 18.4178L5.75982 18.3803L5.75752 18.3746C5.57586 17.9258 5.38277 17.4488 5.07683 17.0285C4.7748 16.6134 4.38348 16.2862 4.01553 15.9786L4.0111 15.9749C3.78774 15.7881 3.57602 15.6109 3.40407 15.4325C3.23171 15.2537 3.10725 15.0816 3.05087 14.9079C2.99899 14.7481 2.99916 14.5455 3.03274 14.3065C3.06618 14.0685 3.13076 13.8063 3.19895 13.5299L3.20014 13.5251C3.31844 13.0456 3.44407 12.5365 3.44407 12C3.44407 11.4636 3.31846 10.9545 3.20017 10.4751L3.19895 10.4701C3.13076 10.1937 3.06618 9.93151 3.03274 9.69351C2.99916 9.45448 2.99899 9.25191 3.05087 9.09212L2.95576 9.06124L3.05087 9.09212C3.10725 8.91844 3.23172 8.74625 3.40407 8.56744C3.57602 8.38905 3.78774 8.21188 4.01109 8.02515L4.0111 8.02515L4.01491 8.02196C4.38305 7.71414 4.77457 7.38679 5.07682 6.9715C5.38277 6.55117 5.57586 6.07418 5.75753 5.62541L5.75982 5.61975L5.75982 5.61974C5.86836 5.35155 5.97141 5.09722 6.08705 4.88045C6.20303 4.66304 6.32656 4.4936 6.47073 4.38869L6.47073 4.38868C6.6118 4.28602 6.80873 4.22164 7.0497 4.17867C7.28985 4.13585 7.56223 4.11605 7.8494 4.0953L7.84941 4.0953L7.85548 4.09486C8.34068 4.05975 8.85611 4.02245 9.35508 3.86042L9.3242 3.76531L9.35508 3.86042C9.83565 3.70435 10.2628 3.43605 10.6641 3.18393L10.6682 3.18142C10.9165 3.02543 11.152 2.87766 11.3776 2.76837C11.6035 2.65893 11.8101 2.59291 12 2.59291C12.1898 2.59291 12.3965 2.65893 12.6224 2.76837C12.8481 2.87765 13.0836 3.02541 13.3319 3.18137L13.3365 3.18423C13.7377 3.43624 14.1646 3.70437 14.645 3.86037C15.1439 4.0224 15.6594 4.0597 16.1446 4.09481L16.1507 4.09525L16.1507 4.09525C16.4378 4.116 16.7102 4.1358 16.9503 4.17862C17.1913 4.22159 17.3882 4.28597 17.5293 4.38864C17.6735 4.49354 17.797 4.663 17.913 4.88041C18.0286 5.0972 18.1317 5.35153 18.2402 5.61969L18.2425 5.6254C18.4242 6.07415 18.6173 6.55112 18.9232 6.97144L19.004 6.9126L18.9232 6.97145C19.2253 7.3866 19.6167 7.71385 19.9848 8.02157L19.9889 8.02505C20.2123 8.21182 20.424 8.38901 20.5959 8.56741C20.7683 8.74621 20.8928 8.9184 20.9492 9.09208C21.0011 9.25185 21.0009 9.45444 20.9673 9.69348C20.9338 9.9315 20.8692 10.1937 20.8011 10.4701L20.7999 10.4749C20.6816 10.9544 20.5559 11.4635 20.5559 12C20.5559 12.5362 20.6815 13.0451 20.7998 13.5244L20.8011 13.5299C20.8693 13.8063 20.9339 14.0685 20.9673 14.3065C21.0009 14.5455 21.0011 14.7481 20.9492 14.9079C20.8928 15.0816 20.7683 15.2538 20.596 15.4326C20.424 15.6109 20.2123 15.7881 19.989 15.9749L20.0531 16.0516L19.989 15.9749L19.9852 15.978C19.617 16.2858 19.2255 16.6132 18.9232 17.0285C18.6173 17.4488 18.4242 17.9258 18.2425 18.3746L18.2402 18.3803Z" fill="#1D1D1D" stroke="#1D1D1D" stroke-width="0.2"/>
<path d="M14.8523 8.19691C15.1149 7.93436 15.5405 7.93436 15.8031 8.19691C16.0656 8.45946 16.0656 8.88513 15.8031 9.14768L9.14768 15.8031C8.88513 16.0656 8.45946 16.0656 8.19691 15.8031C7.93436 15.5405 7.93436 15.1149 8.19691 14.8523L14.8523 8.19691Z" fill="#1D1D1D"/>
<path d="M10.5738 10.5738C10.0487 11.0989 9.19739 11.0989 8.6723 10.5738C8.1472 10.0487 8.1472 9.19739 8.6723 8.6723C9.19739 8.1472 10.0487 8.1472 10.5738 8.6723C11.0989 9.19739 11.0989 10.0487 10.5738 10.5738Z" fill="#1D1D1D"/>
<path d="M13.4262 15.3277C13.9513 15.8528 14.8026 15.8528 15.3277 15.3277C15.8528 14.8026 15.8528 13.9513 15.3277 13.4262C14.8026 12.9011 13.9513 12.9011 13.4262 13.4262C12.9011 13.9513 12.9011 14.8026 13.4262 15.3277Z" fill="#1D1D1D"/>
</g>
<defs>
<clipPath id="clip0_1483_66116">
<rect width="24" height="24" fill="white"/>
</clipPath>
</defs>
</svg>
